STARTFONT 2.1
FONT -Bitstream-Terminal-Medium-R-Narrow--18-180-75-75-C-70-ISO8859-1
SIZE 18 75 75
FONTBOUNDINGBOX 7 20 0 -5

STARTPROPERTIES 24
FOUNDRY "Bitstream"
FAMILY_NAME "Terminal"
WEIGHT_NAME "Medium"
SLANT "R"
SETWIDTH_NAME "Narrow"
ADD_STYLE_NAME ""
PIXEL_SIZE 18
POINT_SIZE 180
RESOLUTION_X 75
RESOLUTION_Y 75
SPACING "C"
AVERAGE_WIDTH 70
CHARSET_REGISTRY "ISO8859"
CHARSET_ENCODING "1"
CAP_HEIGHT 11
X_HEIGHT 9
COPYRIGHT "Copyright (c) 1991 Digital Equipment Corporation. All Rights Reserved."
_DEC_PRODUCTINFO "DECterm Fonts V2.2, 11-Nov-1991"
FULL_NAME "Terminal Narrow"
WEIGHT 10
QUAD_WIDTH 7
DEFAULT_CHAR 159
FONT_DESCENT 5
FONT_ASCENT 15
ENDPROPERTIES

CHARS 195

STARTCHAR space
ENCODING 32
SWIDTH 360 0
DWIDTH 7 0
BBX 7 20 0 -5
BITMAP
00
00
00
00
00
00
00
00
00
00
00
00
00
00
00
00
00
00
00
00
ENDCHAR

STARTCHAR exclam
ENCODING 33
SWIDTH 360 0
DWIDTH 7 0
BBX 7 20 0 -5
BITMAP
00
00
00
00
10
10
10
10
10
10
10
00
10
38
10
00
00
00
00
00
ENDCHAR

STARTCHAR quotedbl
ENCODING 34
SWIDTH 360 0
DWIDTH 7 0
BBX 7 20 0 -5
BITMAP
00
00
28
28
28
28
00
00
00
00
00
00
00
00
00
00
00
00
00
00
ENDCHAR

STARTCHAR numbersign
ENCODING 35
SWIDTH 360 0
DWIDTH 7 0
BBX 7 20 0 -5
BITMAP
00
00
00
00
28
28
28
28
7C
28
28
7C
28
28
28
28
00
00
00
00
ENDCHAR

STARTCHAR dollar
ENCODING 36
SWIDTH 360 0
DWIDTH 7 0
BBX 7 20 0 -5
BITMAP
00
00
08
08
1C
24
24
20
10
18
04
04
24
24
38
10
10
10
00
00
ENDCHAR

STARTCHAR percent
ENCODING 37
SWIDTH 360 0
DWIDTH 7 0
BBX 7 20 0 -5
BITMAP
00
00
00
00
20
50
50
54
28
10
28
54
14
14
08
00
00
00
00
00
ENDCHAR

STARTCHAR ampersand
ENCODING 38
SWIDTH 360 0
DWIDTH 7 0
BBX 7 20 0 -5
BITMAP
00
00
00
00
18
28
20
20
20
54
54
48
48
48
34
00
00
00
00
00
ENDCHAR

STARTCHAR quoteright
ENCODING 39
SWIDTH 360 0
DWIDTH 7 0
BBX 7 20 0 -5
BITMAP
00
00
08
08
10
10
00
00
00
00
00
00
00
00
00
00
00
00
00
00
ENDCHAR

STARTCHAR parenleft
ENCODING 40
SWIDTH 360 0
DWIDTH 7 0
BBX 7 20 0 -5
BITMAP
00
00
00
08
10
10
20
20
20
20
20
20
20
10
10
08
00
00
00
00
ENDCHAR

STARTCHAR parenright
ENCODING 41
SWIDTH 360 0
DWIDTH 7 0
BBX 7 20 0 -5
BITMAP
00
00
00
20
10
10
08
08
08
08
08
08
08
10
10
20
00
00
00
00
ENDCHAR

STARTCHAR asterisk
ENCODING 42
SWIDTH 360 0
DWIDTH 7 0
BBX 7 20 0 -5
BITMAP
00
00
00
00
00
00
10
54
38
10
28
44
00
00
00
00
00
00
00
00
ENDCHAR

STARTCHAR plus
ENCODING 43
SWIDTH 360 0
DWIDTH 7 0
BBX 7 20 0 -5
BITMAP
00
00
00
00
00
00
10
10
10
7C
10
10
10
00
00
00
00
00
00
00
ENDCHAR

STARTCHAR comma
ENCODING 44
SWIDTH 360 0
DWIDTH 7 0
BBX 7 20 0 -5
BITMAP
00
00
00
00
00
00
00
00
00
00
00
00
00
18
10
20
20
00
00
00
ENDCHAR

STARTCHAR minus
ENCODING 45
SWIDTH 360 0
DWIDTH 7 0
BBX 7 20 0 -5
BITMAP
00
00
00
00
00
00
00
00
00
7C
00
00
00
00
00
00
00
00
00
00
ENDCHAR

STARTCHAR period
ENCODING 46
SWIDTH 360 0
DWIDTH 7 0
BBX 7 20 0 -5
BITMAP
00
00
00
00
00
00
00
00
00
00
00
00
10
38
10
00
00
00
00
00
ENDCHAR

STARTCHAR slash
ENCODING 47
SWIDTH 360 0
DWIDTH 7 0
BBX 7 20 0 -5
BITMAP
00
00
00
04
04
04
08
08
08
10
10
10
10
20
20
20
00
00
00
00
ENDCHAR

STARTCHAR zero
ENCODING 48
SWIDTH 360 0
DWIDTH 7 0
BBX 7 20 0 -5
BITMAP
00
00
00
00
10
28
28
44
44
44
44
44
28
28
10
00
00
00
00
00
ENDCHAR

STARTCHAR one
ENCODING 49
SWIDTH 360 0
DWIDTH 7 0
BBX 7 20 0 -5
BITMAP
00
00
00
00
10
30
50
10
10
10
10
10
10
10
7C
00
00
00
00
00
ENDCHAR

STARTCHAR two
ENCODING 50
SWIDTH 360 0
DWIDTH 7 0
BBX 7 20 0 -5
BITMAP
00
00
00
00
18
24
24
04
04
08
08
10
10
24
3C
00
00
00
00
00
ENDCHAR

STARTCHAR three
ENCODING 51
SWIDTH 360 0
DWIDTH 7 0
BBX 7 20 0 -5
BITMAP
00
00
00
00
30
48
08
08
08
30
08
08
08
48
30
00
00
00
00
00
ENDCHAR

STARTCHAR four
ENCODING 52
SWIDTH 360 0
DWIDTH 7 0
BBX 7 20 0 -5
BITMAP
00
00
00
00
08
18
18
28
28
48
48
7C
08
08
1C
00
00
00
00
00
ENDCHAR

STARTCHAR five
ENCODING 53
SWIDTH 360 0
DWIDTH 7 0
BBX 7 20 0 -5
BITMAP
00
00
00
00
3C
20
20
20
38
24
04
04
04
24
18
00
00
00
00
00
ENDCHAR

STARTCHAR six
ENCODING 54
SWIDTH 360 0
DWIDTH 7 0
BBX 7 20 0 -5
BITMAP
00
00
00
00
0C
10
10
20
38
24
24
24
24
24
18
00
00
00
00
00
ENDCHAR

STARTCHAR seven
ENCODING 55
SWIDTH 360 0
DWIDTH 7 0
BBX 7 20 0 -5
BITMAP
00
00
00
00
3C
24
04
04
08
08
08
10
10
10
10
00
00
00
00
00
ENDCHAR

STARTCHAR eight
ENCODING 56
SWIDTH 360 0
DWIDTH 7 0
BBX 7 20 0 -5
BITMAP
00
00
00
00
18
24
24
24
24
18
24
24
24
24
18
00
00
00
00
00
ENDCHAR

STARTCHAR nine
ENCODING 57
SWIDTH 360 0
DWIDTH 7 0
BBX 7 20 0 -5
BITMAP
00
00
00
00
18
24
24
24
24
24
1C
04
04
08
30
00
00
00
00
00
ENDCHAR

STARTCHAR colon
ENCODING 58
SWIDTH 360 0
DWIDTH 7 0
BBX 7 20 0 -5
BITMAP
00
00
00
00
00
00
00
10
38
10
00
00
10
38
10
00
00
00
00
00
ENDCHAR

STARTCHAR semicolon
ENCODING 59
SWIDTH 360 0
DWIDTH 7 0
BBX 7 20 0 -5
BITMAP
00
00
00
00
00
00
00
10
38
10
00
00
00
18
10
20
20
00
00
00
ENDCHAR

STARTCHAR less
ENCODING 60
SWIDTH 360 0
DWIDTH 7 0
BBX 7 20 0 -5
BITMAP
00
00
00
00
00
04
08
10
20
40
20
10
08
04
00
00
00
00
00
00
ENDCHAR

STARTCHAR equal
ENCODING 61
SWIDTH 360 0
DWIDTH 7 0
BBX 7 20 0 -5
BITMAP
00
00
00
00
00
00
00
7C
00
00
7C
00
00
00
00
00
00
00
00
00
ENDCHAR

STARTCHAR greater
ENCODING 62
SWIDTH 360 0
DWIDTH 7 0
BBX 7 20 0 -5
BITMAP
00
00
00
00
00
40
20
10
08
04
08
10
20
40
00
00
00
00
00
00
ENDCHAR

STARTCHAR question
ENCODING 63
SWIDTH 360 0
DWIDTH 7 0
BBX 7 20 0 -5
BITMAP
00
00
00
00
38
44
44
04
08
10
10
00
10
38
10
00
00
00
00
00
ENDCHAR

STARTCHAR at
ENCODING 64
SWIDTH 360 0
DWIDTH 7 0
BBX 7 20 0 -5
BITMAP
00
00
00
00
38
44
44
44
4C
54
54
54
4E
40
40
22
1C
00
00
00
ENDCHAR

STARTCHAR A
ENCODING 65
SWIDTH 360 0
DWIDTH 7 0
BBX 7 20 0 -5
BITMAP
00
00
00
00
10
10
28
28
28
44
44
7C
44
44
C6
00
00
00
00
00
ENDCHAR

STARTCHAR B
ENCODING 66
SWIDTH 360 0
DWIDTH 7 0
BBX 7 20 0 -5
BITMAP
00
00
00
00
7C
22
22
22
22
3C
22
22
22
22
7C
00
00
00
00
00
ENDCHAR

STARTCHAR C
ENCODING 67
SWIDTH 360 0
DWIDTH 7 0
BBX 7 20 0 -5
BITMAP
00
00
00
00
34
4C
44
40
40
40
40
40
40
44
38
00
00
00
00
00
ENDCHAR

STARTCHAR D
ENCODING 68
SWIDTH 360 0
DWIDTH 7 0
BBX 7 20 0 -5
BITMAP
00
00
00
00
7C
22
22
22
22
22
22
22
22
22
7C
00
00
00
00
00
ENDCHAR

STARTCHAR E
ENCODING 69
SWIDTH 360 0
DWIDTH 7 0
BBX 7 20 0 -5
BITMAP
00
00
00
00
7E
22
22
20
24
3C
24
20
22
22
7E
00
00
00
00
00
ENDCHAR

STARTCHAR F
ENCODING 70
SWIDTH 360 0
DWIDTH 7 0
BBX 7 20 0 -5
BITMAP
00
00
00
00
7E
22
22
20
24
3C
24
20
20
20
70
00
00
00
00
00
ENDCHAR

STARTCHAR G
ENCODING 71
SWIDTH 360 0
DWIDTH 7 0
BBX 7 20 0 -5
BITMAP
00
00
00
00
34
4C
44
40
40
40
4E
44
44
44
3C
00
00
00
00
00
ENDCHAR

STARTCHAR H
ENCODING 72
SWIDTH 360 0
DWIDTH 7 0
BBX 7 20 0 -5
BITMAP
00
00
00
00
EE
44
44
44
44
7C
44
44
44
44
EE
00
00
00
00
00
ENDCHAR

STARTCHAR I
ENCODING 73
SWIDTH 360 0
DWIDTH 7 0
BBX 7 20 0 -5
BITMAP
00
00
00
00
7C
10
10
10
10
10
10
10
10
10
7C
00
00
00
00
00
ENDCHAR

STARTCHAR J
ENCODING 74
SWIDTH 360 0
DWIDTH 7 0
BBX 7 20 0 -5
BITMAP
00
00
00
00
1E
04
04
04
04
04
04
44
44
44
38
00
00
00
00
00
ENDCHAR

STARTCHAR K
ENCODING 75
SWIDTH 360 0
DWIDTH 7 0
BBX 7 20 0 -5
BITMAP
00
00
00
00
E6
44
48
48
50
70
48
48
44
44
E6
00
00
00
00
00
ENDCHAR

STARTCHAR L
ENCODING 76
SWIDTH 360 0
DWIDTH 7 0
BBX 7 20 0 -5
BITMAP
00
00
00
00
70
20
20
20
20
20
20
20
22
22
7E
00
00
00
00
00
ENDCHAR

STARTCHAR M
ENCODING 77
SWIDTH 360 0
DWIDTH 7 0
BBX 7 20 0 -5
BITMAP
00
00
00
00
C6
44
6C
6C
54
54
54
44
44
44
EE
00
00
00
00
00
ENDCHAR

STARTCHAR N
ENCODING 78
SWIDTH 360 0
DWIDTH 7 0
BBX 7 20 0 -5
BITMAP
00
00
00
00
CE
44
64
64
54
54
54
4C
4C
44
E4
00
00
00
00
00
ENDCHAR

STARTCHAR O
ENCODING 79
SWIDTH 360 0
DWIDTH 7 0
BBX 7 20 0 -5
BITMAP
00
00
00
00
38
44
44
44
44
44
44
44
44
44
38
00
00
00
00
00
ENDCHAR

STARTCHAR P
ENCODING 80
SWIDTH 360 0
DWIDTH 7 0
BBX 7 20 0 -5
BITMAP
00
00
00
00
7C
22
22
22
22
22
3C
20
20
20
78
00
00
00
00
00
ENDCHAR

STARTCHAR Q
ENCODING 81
SWIDTH 360 0
DWIDTH 7 0
BBX 7 20 0 -5
BITMAP
00
00
00
00
38
44
44
44
44
44
44
44
44
44
38
20
34
48
00
00
ENDCHAR

STARTCHAR R
ENCODING 82
SWIDTH 360 0
DWIDTH 7 0
BBX 7 20 0 -5
BITMAP
00
00
00
00
F8
44
44
44
44
78
48
48
44
44
E6
00
00
00
00
00
ENDCHAR

STARTCHAR S
ENCODING 83
SWIDTH 360 0
DWIDTH 7 0
BBX 7 20 0 -5
BITMAP
00
00
00
00
3C
44
44
40
40
38
04
04
44
44
78
00
00
00
00
00
ENDCHAR

STARTCHAR T
ENCODING 84
SWIDTH 360 0
DWIDTH 7 0
BBX 7 20 0 -5
BITMAP
00
00
00
00
FE
92
92
92
10
10
10
10
10
10
38
00
00
00
00
00
ENDCHAR

STARTCHAR U
ENCODING 85
SWIDTH 360 0
DWIDTH 7 0
BBX 7 20 0 -5
BITMAP
00
00
00
00
EE
44
44
44
44
44
44
44
44
44
38
00
00
00
00
00
ENDCHAR

STARTCHAR V
ENCODING 86
SWIDTH 360 0
DWIDTH 7 0
BBX 7 20 0 -5
BITMAP
00
00
00
00
C6
44
44
44
44
28
28
28
28
10
10
00
00
00
00
00
ENDCHAR

STARTCHAR W
ENCODING 87
SWIDTH 360 0
DWIDTH 7 0
BBX 7 20 0 -5
BITMAP
00
00
00
00
C6
82
92
92
92
AA
AA
AA
44
44
44
00
00
00
00
00
ENDCHAR

STARTCHAR X
ENCODING 88
SWIDTH 360 0
DWIDTH 7 0
BBX 7 20 0 -5
BITMAP
00
00
00
00
C6
44
28
28
10
10
28
28
44
44
C6
00
00
00
00
00
ENDCHAR

STARTCHAR Y
ENCODING 89
SWIDTH 360 0
DWIDTH 7 0
BBX 7 20 0 -5
BITMAP
00
00
00
00
EE
44
44
44
28
28
10
10
10
10
38
00
00
00
00
00
ENDCHAR

STARTCHAR Z
ENCODING 90
SWIDTH 360 0
DWIDTH 7 0
BBX 7 20 0 -5
BITMAP
00
00
00
00
7C
44
48
08
10
10
10
20
24
44
7C
00
00
00
00
00
ENDCHAR

STARTCHAR bracketleft
ENCODING 91
SWIDTH 360 0
DWIDTH 7 0
BBX 7 20 0 -5
BITMAP
00
00
00
38
20
20
20
20
20
20
20
20
20
20
20
38
00
00
00
00
ENDCHAR

STARTCHAR backslash
ENCODING 92
SWIDTH 360 0
DWIDTH 7 0
BBX 7 20 0 -5
BITMAP
00
00
00
40
40
40
20
20
20
10
10
10
10
08
08
08
00
00
00
00
ENDCHAR

STARTCHAR bracketright
ENCODING 93
SWIDTH 360 0
DWIDTH 7 0
BBX 7 20 0 -5
BITMAP
00
00
00
38
08
08
08
08
08
08
08
08
08
08
08
38
00
00
00
00
ENDCHAR

STARTCHAR asciicircum
ENCODING 94
SWIDTH 360 0
DWIDTH 7 0
BBX 7 20 0 -5
BITMAP
00
00
00
00
00
00
10
38
44
00
00
00
00
00
00
00
00
00
00
00
ENDCHAR

STARTCHAR underscore
ENCODING 95
SWIDTH 360 0
DWIDTH 7 0
BBX 7 20 0 -5
BITMAP
00
00
00
00
00
00
00
00
00
00
00
00
00
00
7E
00
00
00
00
00
ENDCHAR

STARTCHAR quoteleft
ENCODING 96
SWIDTH 360 0
DWIDTH 7 0
BBX 7 20 0 -5
BITMAP
00
00
30
10
08
08
00
00
00
00
00
00
00
00
00
00
00
00
00
00
ENDCHAR

STARTCHAR a
ENCODING 97
SWIDTH 360 0
DWIDTH 7 0
BBX 7 20 0 -5
BITMAP
00
00
00
00
00
00
38
44
04
3C
44
44
44
4C
36
00
00
00
00
00
ENDCHAR

STARTCHAR b
ENCODING 98
SWIDTH 360 0
DWIDTH 7 0
BBX 7 20 0 -5
BITMAP
00
00
00
C0
40
40
58
64
44
44
44
44
44
64
D8
00
00
00
00
00
ENDCHAR

STARTCHAR c
ENCODING 99
SWIDTH 360 0
DWIDTH 7 0
BBX 7 20 0 -5
BITMAP
00
00
00
00
00
00
34
4C
44
40
40
40
40
44
38
00
00
00
00
00
ENDCHAR

STARTCHAR d
ENCODING 100
SWIDTH 360 0
DWIDTH 7 0
BBX 7 20 0 -5
BITMAP
00
00
00
0C
04
04
34
4C
44
44
44
44
44
4C
36
00
00
00
00
00
ENDCHAR

STARTCHAR e
ENCODING 101
SWIDTH 360 0
DWIDTH 7 0
BBX 7 20 0 -5
BITMAP
00
00
00
00
00
00
38
44
44
44
7C
40
40
44
38
00
00
00
00
00
ENDCHAR

STARTCHAR f
ENCODING 102
SWIDTH 360 0
DWIDTH 7 0
BBX 7 20 0 -5
BITMAP
00
00
00
0C
10
10
7C
10
10
10
10
10
10
10
7C
00
00
00
00
00
ENDCHAR

STARTCHAR g
ENCODING 103
SWIDTH 360 0
DWIDTH 7 0
BBX 7 20 0 -5
BITMAP
00
00
00
00
00
00
36
4C
44
44
44
44
44
4C
34
04
04
78
00
00
ENDCHAR

STARTCHAR h
ENCODING 104
SWIDTH 360 0
DWIDTH 7 0
BBX 7 20 0 -5
BITMAP
00
00
00
C0
40
40
58
64
44
44
44
44
44
44
C6
00
00
00
00
00
ENDCHAR

STARTCHAR i
ENCODING 105
SWIDTH 360 0
DWIDTH 7 0
BBX 7 20 0 -5
BITMAP
00
00
10
10
00
00
70
10
10
10
10
10
10
10
7C
00
00
00
00
00
ENDCHAR

STARTCHAR j
ENCODING 106
SWIDTH 360 0
DWIDTH 7 0
BBX 7 20 0 -5
BITMAP
00
00
08
08
00
00
78
08
08
08
08
08
08
08
08
08
08
70
00
00
ENDCHAR

STARTCHAR k
ENCODING 107
SWIDTH 360 0
DWIDTH 7 0
BBX 7 20 0 -5
BITMAP
00
00
00
60
20
20
26
24
28
30
28
28
24
24
66
00
00
00
00
00
ENDCHAR

STARTCHAR l
ENCODING 108
SWIDTH 360 0
DWIDTH 7 0
BBX 7 20 0 -5
BITMAP
00
00
00
70
10
10
10
10
10
10
10
10
10
10
7C
00
00
00
00
00
ENDCHAR

STARTCHAR m
ENCODING 109
SWIDTH 360 0
DWIDTH 7 0
BBX 7 20 0 -5
BITMAP
00
00
00
00
00
00
EE
92
92
92
92
92
92
92
92
00
00
00
00
00
ENDCHAR

STARTCHAR n
ENCODING 110
SWIDTH 360 0
DWIDTH 7 0
BBX 7 20 0 -5
BITMAP
00
00
00
00
00
00
D8
64
44
44
44
44
44
44
C6
00
00
00
00
00
ENDCHAR

STARTCHAR o
ENCODING 111
SWIDTH 360 0
DWIDTH 7 0
BBX 7 20 0 -5
BITMAP
00
00
00
00
00
00
38
44
44
44
44
44
44
44
38
00
00
00
00
00
ENDCHAR

STARTCHAR p
ENCODING 112
SWIDTH 360 0
DWIDTH 7 0
BBX 7 20 0 -5
BITMAP
00
00
00
00
00
00
D8
64
44
44
44
44
44
64
58
40
40
F0
00
00
ENDCHAR

STARTCHAR q
ENCODING 113
SWIDTH 360 0
DWIDTH 7 0
BBX 7 20 0 -5
BITMAP
00
00
00
00
00
00
36
4C
44
44
44
44
44
4C
34
04
04
1E
00
00
ENDCHAR

STARTCHAR r
ENCODING 114
SWIDTH 360 0
DWIDTH 7 0
BBX 7 20 0 -5
BITMAP
00
00
00
00
00
00
6E
32
20
20
20
20
20
20
78
00
00
00
00
00
ENDCHAR

STARTCHAR s
ENCODING 115
SWIDTH 360 0
DWIDTH 7 0
BBX 7 20 0 -5
BITMAP
00
00
00
00
00
00
3C
44
44
40
38
04
44
44
78
00
00
00
00
00
ENDCHAR

STARTCHAR t
ENCODING 116
SWIDTH 360 0
DWIDTH 7 0
BBX 7 20 0 -5
BITMAP
00
00
00
20
20
20
7C
20
20
20
20
20
20
22
1C
00
00
00
00
00
ENDCHAR

STARTCHAR u
ENCODING 117
SWIDTH 360 0
DWIDTH 7 0
BBX 7 20 0 -5
BITMAP
00
00
00
00
00
00
CC
44
44
44
44
44
44
4C
36
00
00
00
00
00
ENDCHAR

STARTCHAR v
ENCODING 118
SWIDTH 360 0
DWIDTH 7 0
BBX 7 20 0 -5
BITMAP
00
00
00
00
00
00
C6
44
44
44
28
28
28
10
10
00
00
00
00
00
ENDCHAR

STARTCHAR w
ENCODING 119
SWIDTH 360 0
DWIDTH 7 0
BBX 7 20 0 -5
BITMAP
00
00
00
00
00
00
C6
82
82
92
92
92
6C
44
44
00
00
00
00
00
ENDCHAR

STARTCHAR x
ENCODING 120
SWIDTH 360 0
DWIDTH 7 0
BBX 7 20 0 -5
BITMAP
00
00
00
00
00
00
C6
44
28
28
10
28
28
44
C6
00
00
00
00
00
ENDCHAR

STARTCHAR y
ENCODING 121
SWIDTH 360 0
DWIDTH 7 0
BBX 7 20 0 -5
BITMAP
00
00
00
00
00
00
C6
44
44
44
28
28
28
10
10
20
20
F0
00
00
ENDCHAR

STARTCHAR z
ENCODING 122
SWIDTH 360 0
DWIDTH 7 0
BBX 7 20 0 -5
BITMAP
00
00
00
00
00
00
7C
44
48
08
10
20
24
44
7C
00
00
00
00
00
ENDCHAR

STARTCHAR braceleft
ENCODING 123
SWIDTH 360 0
DWIDTH 7 0
BBX 7 20 0 -5
BITMAP
00
00
00
04
08
08
08
08
08
30
08
08
08
08
08
04
00
00
00
00
ENDCHAR

STARTCHAR bar
ENCODING 124
SWIDTH 360 0
DWIDTH 7 0
BBX 7 20 0 -5
BITMAP
00
00
00
10
10
10
10
10
10
10
10
10
10
10
10
10
10
00
00
00
ENDCHAR

STARTCHAR braceright
ENCODING 125
SWIDTH 360 0
DWIDTH 7 0
BBX 7 20 0 -5
BITMAP
00
00
00
20
10
10
10
10
10
0C
10
10
10
10
10
20
00
00
00
00
ENDCHAR

STARTCHAR asciitilde
ENCODING 126
SWIDTH 360 0
DWIDTH 7 0
BBX 7 20 0 -5
BITMAP
00
00
00
00
00
00
24
54
48
00
00
00
00
00
00
00
00
00
00
00
ENDCHAR

STARTCHAR OE
ENCODING 128
SWIDTH 360 0
DWIDTH 7 0
BBX 7 20 0 -5
BITMAP
00
00
00
00
7E
92
92
90
94
9C
94
90
92
92
7E
00
00
00
00
00
ENDCHAR

STARTCHAR oe
ENCODING 129
SWIDTH 360 0
DWIDTH 7 0
BBX 7 20 0 -5
BITMAP
00
00
00
00
00
00
6C
92
92
92
9E
90
90
92
6C
00
00
00
00
00
ENDCHAR

STARTCHAR Ydieresis
ENCODING 130
SWIDTH 360 0
DWIDTH 7 0
BBX 7 20 0 -5
BITMAP
44
44
00
00
EE
44
44
44
28
28
10
10
10
10
7C
00
00
00
00
00
ENDCHAR

STARTCHAR Error
ENCODING 159
SWIDTH 360 0
DWIDTH 7 0
BBX 7 20 0 -5
BITMAP
00
78
CC
84
84
80
80
40
20
10
10
10
10
00
00
10
38
10
00
00
ENDCHAR

STARTCHAR space
ENCODING 160
SWIDTH 360 0
DWIDTH 7 0
BBX 7 20 0 -5
BITMAP
00
00
00
00
00
00
00
00
00
00
00
00
00
00
00
00
00
00
00
00
ENDCHAR

STARTCHAR exclamdown
ENCODING 161
SWIDTH 360 0
DWIDTH 7 0
BBX 7 20 0 -5
BITMAP
00
00
00
00
10
38
10
00
10
10
10
10
10
10
10
10
00
00
00
00
ENDCHAR

STARTCHAR cent
ENCODING 162
SWIDTH 360 0
DWIDTH 7 0
BBX 7 20 0 -5
BITMAP
00
00
00
00
10
10
3C
44
44
40
40
40
44
38
10
10
00
00
00
00
ENDCHAR

STARTCHAR sterling
ENCODING 163
SWIDTH 360 0
DWIDTH 7 0
BBX 7 20 0 -5
BITMAP
00
00
00
00
18
24
24
20
10
7C
10
10
10
32
4C
00
00
00
00
00
ENDCHAR

STARTCHAR currency
ENCODING 164
SWIDTH 360 0
DWIDTH 7 0
BBX 7 20 0 -5
BITMAP
00
00
00
00
00
00
44
38
44
44
44
38
44
00
00
00
00
00
00
00
ENDCHAR

STARTCHAR yen
ENCODING 165
SWIDTH 360 0
DWIDTH 7 0
BBX 7 20 0 -5
BITMAP
00
00
00
00
EE
44
44
EE
28
28
FE
10
10
10
38
00
00
00
00
00
ENDCHAR

STARTCHAR brokenbar
ENCODING 166
SWIDTH 360 0
DWIDTH 7 0
BBX 7 20 0 -5
BITMAP
00
00
00
10
10
10
10
10
10
00
00
00
10
10
10
10
10
10
00
00
ENDCHAR

STARTCHAR section
ENCODING 167
SWIDTH 360 0
DWIDTH 7 0
BBX 7 20 0 -5
BITMAP
00
00
00
00
1C
24
20
20
50
48
44
24
14
08
08
48
70
00
00
00
ENDCHAR

STARTCHAR dieresis
ENCODING 168
SWIDTH 360 0
DWIDTH 7 0
BBX 7 20 0 -5
BITMAP
00
00
44
44
00
00
00
00
00
00
00
00
00
00
00
00
00
00
00
00
ENDCHAR

STARTCHAR copyright
ENCODING 169
SWIDTH 360 0
DWIDTH 7 0
BBX 7 20 0 -5
BITMAP
00
00
00
00
00
38
44
92
AA
A2
A2
AA
92
44
38
00
00
00
00
00
ENDCHAR

STARTCHAR ordfeminine
ENCODING 170
SWIDTH 360 0
DWIDTH 7 0
BBX 7 20 0 -5
BITMAP
00
00
38
04
3C
44
4C
34
00
00
7C
00
00
00
00
00
00
00
00
00
ENDCHAR

STARTCHAR guillemotleft
ENCODING 171
SWIDTH 360 0
DWIDTH 7 0
BBX 7 20 0 -5
BITMAP
00
00
00
00
00
00
00
00
24
24
48
48
48
24
24
00
00
00
00
00
ENDCHAR

STARTCHAR logicalnot
ENCODING 172
SWIDTH 360 0
DWIDTH 7 0
BBX 7 20 0 -5
BITMAP
00
00
00
00
00
00
00
00
7C
04
04
04
00
00
00
00
00
00
00
00
ENDCHAR

STARTCHAR hyphen
ENCODING 173
SWIDTH 360 0
DWIDTH 7 0
BBX 7 20 0 -5
BITMAP
00
00
00
00
00
00
00
00
00
00
7C
00
00
00
00
00
00
00
00
00
ENDCHAR

STARTCHAR registered
ENCODING 174
SWIDTH 360 0
DWIDTH 7 0
BBX 7 20 0 -5
BITMAP
00
00
00
00
00
38
44
BA
AA
AA
B2
AA
AA
44
38
00
00
00
00
00
ENDCHAR

STARTCHAR macron
ENCODING 175
SWIDTH 360 0
DWIDTH 7 0
BBX 7 20 0 -5
BITMAP
00
00
00
38
00
00
00
00
00
00
00
00
00
00
00
00
00
00
00
00
ENDCHAR

STARTCHAR degree
ENCODING 176
SWIDTH 360 0
DWIDTH 7 0
BBX 7 20 0 -5
BITMAP
00
00
00
18
24
24
18
00
00
00
00
00
00
00
00
00
00
00
00
00
ENDCHAR

STARTCHAR plusminus
ENCODING 177
SWIDTH 360 0
DWIDTH 7 0
BBX 7 20 0 -5
BITMAP
00
00
00
00
00
10
10
10
7C
10
10
10
00
00
7C
00
00
00
00
00
ENDCHAR

STARTCHAR twosuperior
ENCODING 178
SWIDTH 360 0
DWIDTH 7 0
BBX 7 20 0 -5
BITMAP
00
00
38
44
04
08
10
24
7C
00
00
00
00
00
00
00
00
00
00
00
ENDCHAR

STARTCHAR threesuperior
ENCODING 179
SWIDTH 360 0
DWIDTH 7 0
BBX 7 20 0 -5
BITMAP
00
00
38
44
04
18
04
44
38
00
00
00
00
00
00
00
00
00
00
00
ENDCHAR

STARTCHAR acute
ENCODING 180
SWIDTH 360 0
DWIDTH 7 0
BBX 7 20 0 -5
BITMAP
00
0C
10
20
00
00
00
00
00
00
00
00
00
00
00
00
00
00
00
00
ENDCHAR

STARTCHAR mu
ENCODING 181
SWIDTH 360 0
DWIDTH 7 0
BBX 7 20 0 -5
BITMAP
00
00
00
00
00
00
12
12
12
12
24
24
24
24
3A
40
40
40
40
00
ENDCHAR

STARTCHAR paragraph
ENCODING 182
SWIDTH 360 0
DWIDTH 7 0
BBX 7 20 0 -5
BITMAP
00
00
00
00
3E
74
74
74
74
74
34
14
14
14
14
14
36
00
00
00
ENDCHAR

STARTCHAR periodcentered
ENCODING 183
SWIDTH 360 0
DWIDTH 7 0
BBX 7 20 0 -5
BITMAP
00
00
00
00
00
00
00
00
10
38
10
00
00
00
00
00
00
00
00
00
ENDCHAR

STARTCHAR cedilla
ENCODING 184
SWIDTH 360 0
DWIDTH 7 0
BBX 7 20 0 -5
BITMAP
00
00
00
00
00
00
00
00
00
00
00
00
00
00
00
10
08
04
38
00
ENDCHAR

STARTCHAR onesuperior
ENCODING 185
SWIDTH 360 0
DWIDTH 7 0
BBX 7 20 0 -5
BITMAP
00
00
30
10
10
10
10
10
38
00
00
00
00
00
00
00
00
00
00
00
ENDCHAR

STARTCHAR ordmasculine
ENCODING 186
SWIDTH 360 0
DWIDTH 7 0
BBX 7 20 0 -5
BITMAP
00
00
38
44
44
44
44
38
00
00
7C
00
00
00
00
00
00
00
00
00
ENDCHAR

STARTCHAR guillemotright
ENCODING 187
SWIDTH 360 0
DWIDTH 7 0
BBX 7 20 0 -5
BITMAP
00
00
00
00
00
00
00
00
48
48
24
24
24
48
48
00
00
00
00
00
ENDCHAR

STARTCHAR onequarter
ENCODING 188
SWIDTH 360 0
DWIDTH 7 0
BBX 7 20 0 -5
BITMAP
00
00
00
60
20
20
20
22
74
08
30
44
0C
14
1E
04
04
00
00
00
ENDCHAR

STARTCHAR onehalf
ENCODING 189
SWIDTH 360 0
DWIDTH 7 0
BBX 7 20 0 -5
BITMAP
00
00
00
60
20
20
20
22
74
08
30
4C
12
02
04
08
1E
00
00
00
ENDCHAR

STARTCHAR threequarters
ENCODING 190
SWIDTH 360 0
DWIDTH 7 0
BBX 7 20 0 -5
BITMAP
00
00
00
60
90
20
10
92
64
08
30
44
0C
14
1E
04
04
00
00
00
ENDCHAR

STARTCHAR questiondown
ENCODING 191
SWIDTH 360 0
DWIDTH 7 0
BBX 7 20 0 -5
BITMAP
00
00
00
00
10
38
10
00
10
10
20
40
40
44
44
38
00
00
00
00
ENDCHAR

STARTCHAR Agrave
ENCODING 192
SWIDTH 360 0
DWIDTH 7 0
BBX 7 20 0 -5
BITMAP
60
10
08
00
10
10
28
28
28
44
44
7C
44
44
C6
00
00
00
00
00
ENDCHAR

STARTCHAR Aacute
ENCODING 193
SWIDTH 360 0
DWIDTH 7 0
BBX 7 20 0 -5
BITMAP
0C
10
20
00
10
10
28
28
28
44
44
7C
44
44
C6
00
00
00
00
00
ENDCHAR

STARTCHAR Acircumflex
ENCODING 194
SWIDTH 360 0
DWIDTH 7 0
BBX 7 20 0 -5
BITMAP
10
28
44
00
10
10
28
28
28
44
44
7C
44
44
C6
00
00
00
00
00
ENDCHAR

STARTCHAR Atilde
ENCODING 195
SWIDTH 360 0
DWIDTH 7 0
BBX 7 20 0 -5
BITMAP
24
58
00
00
10
10
28
28
28
44
44
7C
44
44
C6
00
00
00
00
00
ENDCHAR

STARTCHAR Adieresis
ENCODING 196
SWIDTH 360 0
DWIDTH 7 0
BBX 7 20 0 -5
BITMAP
44
44
00
00
10
10
28
28
28
44
44
7C
44
44
C6
00
00
00
00
00
ENDCHAR

STARTCHAR Aring
ENCODING 197
SWIDTH 360 0
DWIDTH 7 0
BBX 7 20 0 -5
BITMAP
38
44
44
38
10
10
28
28
28
44
44
7C
44
44
C6
00
00
00
00
00
ENDCHAR

STARTCHAR AE
ENCODING 198
SWIDTH 360 0
DWIDTH 7 0
BBX 7 20 0 -5
BITMAP
00
00
00
00
7E
52
50
50
54
5C
74
90
92
92
9E
00
00
00
00
00
ENDCHAR

STARTCHAR Ccedilla
ENCODING 199
SWIDTH 360 0
DWIDTH 7 0
BBX 7 20 0 -5
BITMAP
00
00
00
00
34
4C
44
40
40
40
40
40
40
44
38
10
08
04
38
00
ENDCHAR

STARTCHAR Egrave
ENCODING 200
SWIDTH 360 0
DWIDTH 7 0
BBX 7 20 0 -5
BITMAP
30
08
04
00
7E
22
22
20
24
3C
24
20
22
22
7E
00
00
00
00
00
ENDCHAR

STARTCHAR Eacute
ENCODING 201
SWIDTH 360 0
DWIDTH 7 0
BBX 7 20 0 -5
BITMAP
0C
10
20
00
7E
22
22
20
24
3C
24
20
22
22
7E
00
00
00
00
00
ENDCHAR

STARTCHAR Ecircumflex
ENCODING 202
SWIDTH 360 0
DWIDTH 7 0
BBX 7 20 0 -5
BITMAP
08
14
22
00
7E
22
22
20
24
3C
24
20
22
22
7E
00
00
00
00
00
ENDCHAR

STARTCHAR Edieresis
ENCODING 203
SWIDTH 360 0
DWIDTH 7 0
BBX 7 20 0 -5
BITMAP
22
22
00
00
7E
22
22
20
24
3C
24
20
22
22
7E
00
00
00
00
00
ENDCHAR

STARTCHAR Igrave
ENCODING 204
SWIDTH 360 0
DWIDTH 7 0
BBX 7 20 0 -5
BITMAP
60
10
08
00
7C
10
10
10
10
10
10
10
10
10
7C
00
00
00
00
00
ENDCHAR

STARTCHAR Iacute
ENCODING 205
SWIDTH 360 0
DWIDTH 7 0
BBX 7 20 0 -5
BITMAP
0C
10
20
00
7C
10
10
10
10
10
10
10
10
10
7C
00
00
00
00
00
ENDCHAR

STARTCHAR Icircumflex
ENCODING 206
SWIDTH 360 0
DWIDTH 7 0
BBX 7 20 0 -5
BITMAP
10
28
44
00
7C
10
10
10
10
10
10
10
10
10
7C
00
00
00
00
00
ENDCHAR

STARTCHAR Idieresis
ENCODING 207
SWIDTH 360 0
DWIDTH 7 0
BBX 7 20 0 -5
BITMAP
44
44
00
00
7C
10
10
10
10
10
10
10
10
10
7C
00
00
00
00
00
ENDCHAR

STARTCHAR Eth
ENCODING 208
SWIDTH 360 0
DWIDTH 7 0
BBX 7 20 0 -5
BITMAP
00
00
00
00
7C
22
22
22
22
7A
22
22
22
22
7C
00
00
00
00
00
ENDCHAR

STARTCHAR Ntilde
ENCODING 209
SWIDTH 360 0
DWIDTH 7 0
BBX 7 20 0 -5
BITMAP
24
58
00
00
CE
44
64
64
54
54
54
4C
4C
44
E4
00
00
00
00
00
ENDCHAR

STARTCHAR Ograve
ENCODING 210
SWIDTH 360 0
DWIDTH 7 0
BBX 7 20 0 -5
BITMAP
30
08
04
00
38
44
44
44
44
44
44
44
44
44
38
00
00
00
00
00
ENDCHAR

STARTCHAR Oacute
ENCODING 211
SWIDTH 360 0
DWIDTH 7 0
BBX 7 20 0 -5
BITMAP
0C
10
20
00
38
44
44
44
44
44
44
44
44
44
38
00
00
00
00
00
ENDCHAR

STARTCHAR Ocircumflex
ENCODING 212
SWIDTH 360 0
DWIDTH 7 0
BBX 7 20 0 -5
BITMAP
10
28
44
00
38
44
44
44
44
44
44
44
44
44
38
00
00
00
00
00
ENDCHAR

STARTCHAR Otilde
ENCODING 213
SWIDTH 360 0
DWIDTH 7 0
BBX 7 20 0 -5
BITMAP
24
58
00
00
38
44
44
44
44
44
44
44
44
44
38
00
00
00
00
00
ENDCHAR

STARTCHAR Odieresis
ENCODING 214
SWIDTH 360 0
DWIDTH 7 0
BBX 7 20 0 -5
BITMAP
44
44
00
00
38
44
44
44
44
44
44
44
44
44
38
00
00
00
00
00
ENDCHAR

STARTCHAR multiply
ENCODING 215
SWIDTH 360 0
DWIDTH 7 0
BBX 7 20 0 -5
BITMAP
00
00
00
00
00
00
00
44
28
10
10
28
44
00
00
00
00
00
00
00
ENDCHAR

STARTCHAR Oslash
ENCODING 216
SWIDTH 360 0
DWIDTH 7 0
BBX 7 20 0 -5
BITMAP
00
00
00
02
3C
44
4C
4C
54
54
54
54
64
64
78
80
00
00
00
00
ENDCHAR

STARTCHAR Ugrave
ENCODING 217
SWIDTH 360 0
DWIDTH 7 0
BBX 7 20 0 -5
BITMAP
60
10
08
00
EE
44
44
44
44
44
44
44
44
44
38
00
00
00
00
00
ENDCHAR

STARTCHAR Uacute
ENCODING 218
SWIDTH 360 0
DWIDTH 7 0
BBX 7 20 0 -5
BITMAP
0C
10
20
00
EE
44
44
44
44
44
44
44
44
44
38
00
00
00
00
00
ENDCHAR

STARTCHAR Ucircumflex
ENCODING 219
SWIDTH 360 0
DWIDTH 7 0
BBX 7 20 0 -5
BITMAP
10
28
44
00
EE
44
44
44
44
44
44
44
44
44
38
00
00
00
00
00
ENDCHAR

STARTCHAR Udieresis
ENCODING 220
SWIDTH 360 0
DWIDTH 7 0
BBX 7 20 0 -5
BITMAP
44
44
00
00
EE
44
44
44
44
44
44
44
44
44
38
00
00
00
00
00
ENDCHAR

STARTCHAR Yacute
ENCODING 221
SWIDTH 360 0
DWIDTH 7 0
BBX 7 20 0 -5
BITMAP
0C
10
20
00
EE
44
44
44
28
28
10
10
10
10
38
00
00
00
00
00
ENDCHAR

STARTCHAR Thorn
ENCODING 222
SWIDTH 360 0
DWIDTH 7 0
BBX 7 20 0 -5
BITMAP
00
00
00
00
70
20
38
24
24
24
24
24
38
20
70
00
00
00
00
00
ENDCHAR

STARTCHAR germandbls
ENCODING 223
SWIDTH 360 0
DWIDTH 7 0
BBX 7 20 0 -5
BITMAP
00
00
00
1C
22
22
22
22
6C
22
22
22
22
22
6C
00
00
00
00
00
ENDCHAR

STARTCHAR agrave
ENCODING 224
SWIDTH 360 0
DWIDTH 7 0
BBX 7 20 0 -5
BITMAP
00
60
10
08
00
00
38
44
04
3C
44
44
44
4C
36
00
00
00
00
00
ENDCHAR

STARTCHAR aacute
ENCODING 225
SWIDTH 360 0
DWIDTH 7 0
BBX 7 20 0 -5
BITMAP
00
0C
10
20
00
00
38
44
04
3C
44
44
44
4C
36
00
00
00
00
00
ENDCHAR

STARTCHAR acircumflex
ENCODING 226
SWIDTH 360 0
DWIDTH 7 0
BBX 7 20 0 -5
BITMAP
00
10
28
44
00
00
38
44
04
3C
44
44
44
4C
36
00
00
00
00
00
ENDCHAR

STARTCHAR atilde
ENCODING 227
SWIDTH 360 0
DWIDTH 7 0
BBX 7 20 0 -5
BITMAP
00
00
24
58
00
00
38
44
04
3C
44
44
44
4C
36
00
00
00
00
00
ENDCHAR

STARTCHAR adieresis
ENCODING 228
SWIDTH 360 0
DWIDTH 7 0
BBX 7 20 0 -5
BITMAP
00
00
44
44
00
00
38
44
04
3C
44
44
44
4C
36
00
00
00
00
00
ENDCHAR

STARTCHAR aring
ENCODING 229
SWIDTH 360 0
DWIDTH 7 0
BBX 7 20 0 -5
BITMAP
00
18
24
24
18
00
38
44
04
3C
44
44
44
4C
36
00
00
00
00
00
ENDCHAR

STARTCHAR ae
ENCODING 230
SWIDTH 360 0
DWIDTH 7 0
BBX 7 20 0 -5
BITMAP
00
00
00
00
00
00
6C
92
12
12
7E
90
90
92
6C
00
00
00
00
00
ENDCHAR

STARTCHAR ccedilla
ENCODING 231
SWIDTH 360 0
DWIDTH 7 0
BBX 7 20 0 -5
BITMAP
00
00
00
00
00
00
34
4C
44
40
40
40
40
44
38
10
08
04
38
00
ENDCHAR

STARTCHAR egrave
ENCODING 232
SWIDTH 360 0
DWIDTH 7 0
BBX 7 20 0 -5
BITMAP
00
60
10
08
00
00
38
44
44
44
7C
40
40
44
38
00
00
00
00
00
ENDCHAR

STARTCHAR eacute
ENCODING 233
SWIDTH 360 0
DWIDTH 7 0
BBX 7 20 0 -5
BITMAP
00
0C
10
20
00
00
38
44
44
44
7C
40
40
44
38
00
00
00
00
00
ENDCHAR

STARTCHAR ecircumflex
ENCODING 234
SWIDTH 360 0
DWIDTH 7 0
BBX 7 20 0 -5
BITMAP
00
10
28
44
00
00
38
44
44
44
7C
40
40
44
38
00
00
00
00
00
ENDCHAR

STARTCHAR edieresis
ENCODING 235
SWIDTH 360 0
DWIDTH 7 0
BBX 7 20 0 -5
BITMAP
00
00
44
44
00
00
38
44
44
44
7C
40
40
44
38
00
00
00
00
00
ENDCHAR

STARTCHAR igrave
ENCODING 236
SWIDTH 360 0
DWIDTH 7 0
BBX 7 20 0 -5
BITMAP
00
60
10
08
00
00
70
10
10
10
10
10
10
10
7C
00
00
00
00
00
ENDCHAR

STARTCHAR iacute
ENCODING 237
SWIDTH 360 0
DWIDTH 7 0
BBX 7 20 0 -5
BITMAP
00
0C
10
20
00
00
70
10
10
10
10
10
10
10
7C
00
00
00
00
00
ENDCHAR

STARTCHAR icircumflex
ENCODING 238
SWIDTH 360 0
DWIDTH 7 0
BBX 7 20 0 -5
BITMAP
00
10
28
44
00
00
70
10
10
10
10
10
10
10
7C
00
00
00
00
00
ENDCHAR

STARTCHAR idieresis
ENCODING 239
SWIDTH 360 0
DWIDTH 7 0
BBX 7 20 0 -5
BITMAP
00
00
44
44
00
00
70
10
10
10
10
10
10
10
7C
00
00
00
00
00
ENDCHAR

STARTCHAR eth
ENCODING 240
SWIDTH 360 0
DWIDTH 7 0
BBX 7 20 0 -5
BITMAP
00
00
00
60
14
18
28
04
3C
44
44
44
44
44
38
00
00
00
00
00
ENDCHAR

STARTCHAR ntilde
ENCODING 241
SWIDTH 360 0
DWIDTH 7 0
BBX 7 20 0 -5
BITMAP
00
00
24
58
00
00
D8
64
44
44
44
44
44
44
C6
00
00
00
00
00
ENDCHAR

STARTCHAR ograve
ENCODING 242
SWIDTH 360 0
DWIDTH 7 0
BBX 7 20 0 -5
BITMAP
00
60
10
08
00
00
38
44
44
44
44
44
44
44
38
00
00
00
00
00
ENDCHAR

STARTCHAR oacute
ENCODING 243
SWIDTH 360 0
DWIDTH 7 0
BBX 7 20 0 -5
BITMAP
00
0C
10
20
00
00
38
44
44
44
44
44
44
44
38
00
00
00
00
00
ENDCHAR

STARTCHAR ocircumflex
ENCODING 244
SWIDTH 360 0
DWIDTH 7 0
BBX 7 20 0 -5
BITMAP
00
10
28
44
00
00
38
44
44
44
44
44
44
44
38
00
00
00
00
00
ENDCHAR

STARTCHAR otilde
ENCODING 245
SWIDTH 360 0
DWIDTH 7 0
BBX 7 20 0 -5
BITMAP
00
00
24
58
00
00
38
44
44
44
44
44
44
44
38
00
00
00
00
00
ENDCHAR

STARTCHAR odieresis
ENCODING 246
SWIDTH 360 0
DWIDTH 7 0
BBX 7 20 0 -5
BITMAP
00
00
44
44
00
00
38
44
44
44
44
44
44
44
38
00
00
00
00
00
ENDCHAR

STARTCHAR divide
ENCODING 247
SWIDTH 360 0
DWIDTH 7 0
BBX 7 20 0 -5
BITMAP
00
00
00
00
00
00
10
10
00
7C
00
10
10
00
00
00
00
00
00
00
ENDCHAR

STARTCHAR oslash
ENCODING 248
SWIDTH 360 0
DWIDTH 7 0
BBX 7 20 0 -5
BITMAP
00
00
00
00
00
02
3C
44
4C
4C
54
54
64
64
78
80
00
00
00
00
ENDCHAR

STARTCHAR ugrave
ENCODING 249
SWIDTH 360 0
DWIDTH 7 0
BBX 7 20 0 -5
BITMAP
00
60
10
08
00
00
CC
44
44
44
44
44
44
4C
36
00
00
00
00
00
ENDCHAR

STARTCHAR uacute
ENCODING 250
SWIDTH 360 0
DWIDTH 7 0
BBX 7 20 0 -5
BITMAP
00
0C
10
20
00
00
CC
44
44
44
44
44
44
4C
36
00
00
00
00
00
ENDCHAR

STARTCHAR ucircumflex
ENCODING 251
SWIDTH 360 0
DWIDTH 7 0
BBX 7 20 0 -5
BITMAP
00
10
28
44
00
00
CC
44
44
44
44
44
44
4C
36
00
00
00
00
00
ENDCHAR

STARTCHAR udieresis
ENCODING 252
SWIDTH 360 0
DWIDTH 7 0
BBX 7 20 0 -5
BITMAP
00
00
44
44
00
00
CC
44
44
44
44
44
44
4C
36
00
00
00
00
00
ENDCHAR

STARTCHAR yacute
ENCODING 253
SWIDTH 360 0
DWIDTH 7 0
BBX 7 20 0 -5
BITMAP
00
0C
10
20
00
00
C6
44
44
44
28
28
28
10
10
20
20
F0
00
00
ENDCHAR

STARTCHAR thorn
ENCODING 254
SWIDTH 360 0
DWIDTH 7 0
BBX 7 20 0 -5
BITMAP
00
00
00
60
20
20
2C
32
22
22
22
22
22
32
2C
20
20
78
00
00
ENDCHAR

STARTCHAR ydieresis
ENCODING 255
SWIDTH 360 0
DWIDTH 7 0
BBX 7 20 0 -5
BITMAP
00
00
44
44
00
00
C6
44
44
44
28
28
28
10
10
20
20
F0
00
00
ENDCHAR
ENDFONT
